<mxfile host="app.diagrams.net" modified="2024-04-24T17:47:47.482Z" agent="Mozilla/5.0 (Windows NT 10.0; Win64; x64) AppleWebKit/537.36 (KHTML, like Gecko) Chrome/124.0.0.0 Safari/537.36" etag="Ro9tjIu584U0MH62zQV-" version="24.3.0" type="google">
  <diagram name="Страница — 1" id="ZIvHRaE6xj98YJD_3Kp9">
    <mxGraphModel grid="1" page="1" gridSize="10" guides="1" tooltips="1" connect="1" arrows="1" fold="1" pageScale="1" pageWidth="827" pageHeight="1169" math="0" shadow="0">
      <root>
        <mxCell id="0" />
        <mxCell id="1" parent="0" />
        <mxCell id="jHa4SxAEAKlIV_cknHeT-3" value="Formulário Pedido" style="ellipse;whiteSpace=wrap;html=1;" vertex="1" parent="1">
          <mxGeometry x="1180" y="585" width="120" height="80" as="geometry" />
        </mxCell>
        <mxCell id="jHa4SxAEAKlIV_cknHeT-9" style="edgeStyle=orthogonalEdgeStyle;rounded=0;orthogonalLoop=1;jettySize=auto;html=1;exitX=1;exitY=0.5;exitDx=0;exitDy=0;" edge="1" parent="1" source="jHa4SxAEAKlIV_cknHeT-4">
          <mxGeometry relative="1" as="geometry">
            <mxPoint x="1180" y="630" as="targetPoint" />
          </mxGeometry>
        </mxCell>
        <mxCell id="jHa4SxAEAKlIV_cknHeT-36" style="edgeStyle=orthogonalEdgeStyle;rounded=0;orthogonalLoop=1;jettySize=auto;html=1;exitX=0;exitY=0.5;exitDx=0;exitDy=0;entryX=1;entryY=0.5;entryDx=0;entryDy=0;" edge="1" parent="1" source="jHa4SxAEAKlIV_cknHeT-37" target="jHa4SxAEAKlIV_cknHeT-10">
          <mxGeometry relative="1" as="geometry" />
        </mxCell>
        <mxCell id="jHa4SxAEAKlIV_cknHeT-40" style="edgeStyle=orthogonalEdgeStyle;rounded=0;orthogonalLoop=1;jettySize=auto;html=1;exitX=0;exitY=0.5;exitDx=0;exitDy=0;" edge="1" parent="1" source="jHa4SxAEAKlIV_cknHeT-4">
          <mxGeometry relative="1" as="geometry">
            <mxPoint x="950" y="630" as="targetPoint" />
          </mxGeometry>
        </mxCell>
        <mxCell id="jHa4SxAEAKlIV_cknHeT-70" style="edgeStyle=orthogonalEdgeStyle;rounded=0;orthogonalLoop=1;jettySize=auto;html=1;exitX=0;exitY=1;exitDx=0;exitDy=0;entryX=0.5;entryY=0;entryDx=0;entryDy=0;" edge="1" parent="1" source="jHa4SxAEAKlIV_cknHeT-4" target="jHa4SxAEAKlIV_cknHeT-15">
          <mxGeometry relative="1" as="geometry" />
        </mxCell>
        <mxCell id="jHa4SxAEAKlIV_cknHeT-74" style="edgeStyle=orthogonalEdgeStyle;rounded=0;orthogonalLoop=1;jettySize=auto;html=1;exitX=1;exitY=1;exitDx=0;exitDy=0;" edge="1" parent="1" source="jHa4SxAEAKlIV_cknHeT-4">
          <mxGeometry relative="1" as="geometry">
            <mxPoint x="1160" y="690" as="targetPoint" />
          </mxGeometry>
        </mxCell>
        <mxCell id="jHa4SxAEAKlIV_cknHeT-4" value="Interface" style="ellipse;whiteSpace=wrap;html=1;fillColor=#b1ddf0;strokeColor=#10739e;" vertex="1" parent="1">
          <mxGeometry x="1000" y="590" width="120" height="80" as="geometry" />
        </mxCell>
        <mxCell id="jHa4SxAEAKlIV_cknHeT-149" style="edgeStyle=orthogonalEdgeStyle;rounded=0;orthogonalLoop=1;jettySize=auto;html=1;exitX=0.5;exitY=0;exitDx=0;exitDy=0;entryX=0.5;entryY=1;entryDx=0;entryDy=0;" edge="1" parent="1" source="jHa4SxAEAKlIV_cknHeT-5" target="jHa4SxAEAKlIV_cknHeT-146">
          <mxGeometry relative="1" as="geometry" />
        </mxCell>
        <mxCell id="jHa4SxAEAKlIV_cknHeT-150" style="edgeStyle=orthogonalEdgeStyle;rounded=0;orthogonalLoop=1;jettySize=auto;html=1;exitX=0;exitY=0.5;exitDx=0;exitDy=0;entryX=1;entryY=0.5;entryDx=0;entryDy=0;" edge="1" parent="1" source="jHa4SxAEAKlIV_cknHeT-5" target="jHa4SxAEAKlIV_cknHeT-3">
          <mxGeometry relative="1" as="geometry" />
        </mxCell>
        <mxCell id="jHa4SxAEAKlIV_cknHeT-168" style="edgeStyle=orthogonalEdgeStyle;rounded=0;orthogonalLoop=1;jettySize=auto;html=1;exitX=1;exitY=0.5;exitDx=0;exitDy=0;entryX=0;entryY=0.5;entryDx=0;entryDy=0;" edge="1" parent="1" source="jHa4SxAEAKlIV_cknHeT-5" target="jHa4SxAEAKlIV_cknHeT-152">
          <mxGeometry relative="1" as="geometry" />
        </mxCell>
        <mxCell id="jHa4SxAEAKlIV_cknHeT-5" value="Funcionalidade" style="ellipse;whiteSpace=wrap;html=1;fillColor=#60a917;fontColor=#ffffff;strokeColor=#2D7600;" vertex="1" parent="1">
          <mxGeometry x="1340" y="590" width="120" height="80" as="geometry" />
        </mxCell>
        <mxCell id="jHa4SxAEAKlIV_cknHeT-28" style="edgeStyle=orthogonalEdgeStyle;rounded=0;orthogonalLoop=1;jettySize=auto;html=1;exitX=0;exitY=0;exitDx=0;exitDy=0;entryX=1;entryY=0.5;entryDx=0;entryDy=0;" edge="1" parent="1" source="jHa4SxAEAKlIV_cknHeT-10" target="jHa4SxAEAKlIV_cknHeT-11">
          <mxGeometry relative="1" as="geometry" />
        </mxCell>
        <mxCell id="jHa4SxAEAKlIV_cknHeT-29" style="edgeStyle=orthogonalEdgeStyle;rounded=0;orthogonalLoop=1;jettySize=auto;html=1;exitX=0;exitY=0.25;exitDx=0;exitDy=0;entryX=1;entryY=0.5;entryDx=0;entryDy=0;" edge="1" parent="1" source="jHa4SxAEAKlIV_cknHeT-10" target="jHa4SxAEAKlIV_cknHeT-16">
          <mxGeometry relative="1" as="geometry" />
        </mxCell>
        <mxCell id="jHa4SxAEAKlIV_cknHeT-33" style="edgeStyle=orthogonalEdgeStyle;rounded=0;orthogonalLoop=1;jettySize=auto;html=1;exitX=0;exitY=0.75;exitDx=0;exitDy=0;entryX=1;entryY=0.5;entryDx=0;entryDy=0;" edge="1" parent="1" source="jHa4SxAEAKlIV_cknHeT-10" target="jHa4SxAEAKlIV_cknHeT-18">
          <mxGeometry relative="1" as="geometry" />
        </mxCell>
        <mxCell id="jHa4SxAEAKlIV_cknHeT-35" style="edgeStyle=orthogonalEdgeStyle;rounded=0;orthogonalLoop=1;jettySize=auto;html=1;exitX=0;exitY=1;exitDx=0;exitDy=0;entryX=1;entryY=0.5;entryDx=0;entryDy=0;" edge="1" parent="1" source="jHa4SxAEAKlIV_cknHeT-10" target="jHa4SxAEAKlIV_cknHeT-34">
          <mxGeometry relative="1" as="geometry" />
        </mxCell>
        <mxCell id="jHa4SxAEAKlIV_cknHeT-38" value="" style="edgeStyle=orthogonalEdgeStyle;rounded=0;orthogonalLoop=1;jettySize=auto;html=1;" edge="1" parent="1" source="jHa4SxAEAKlIV_cknHeT-10" target="jHa4SxAEAKlIV_cknHeT-37">
          <mxGeometry relative="1" as="geometry" />
        </mxCell>
        <mxCell id="jHa4SxAEAKlIV_cknHeT-10" value="Campos" style="rounded=0;whiteSpace=wrap;html=1;fillColor=#ffe6cc;strokeColor=#d79b00;" vertex="1" parent="1">
          <mxGeometry x="670" y="595" width="90" height="60" as="geometry" />
        </mxCell>
        <mxCell id="jHa4SxAEAKlIV_cknHeT-202" value="" style="edgeStyle=orthogonalEdgeStyle;rounded=0;orthogonalLoop=1;jettySize=auto;html=1;" edge="1" parent="1" source="jHa4SxAEAKlIV_cknHeT-11" target="jHa4SxAEAKlIV_cknHeT-201">
          <mxGeometry relative="1" as="geometry" />
        </mxCell>
        <mxCell id="jHa4SxAEAKlIV_cknHeT-11" value="Nome" style="rounded=0;whiteSpace=wrap;html=1;fillColor=#dae8fc;strokeColor=#6c8ebf;" vertex="1" parent="1">
          <mxGeometry x="500" y="520" width="110" height="30" as="geometry" />
        </mxCell>
        <mxCell id="jHa4SxAEAKlIV_cknHeT-72" value="" style="edgeStyle=orthogonalEdgeStyle;rounded=0;orthogonalLoop=1;jettySize=auto;html=1;" edge="1" parent="1" source="jHa4SxAEAKlIV_cknHeT-15" target="jHa4SxAEAKlIV_cknHeT-71">
          <mxGeometry relative="1" as="geometry" />
        </mxCell>
        <mxCell id="jHa4SxAEAKlIV_cknHeT-15" value="Botão Avançar" style="rounded=0;whiteSpace=wrap;html=1;fillColor=#f5f5f5;gradientColor=#b3b3b3;strokeColor=#666666;" vertex="1" parent="1">
          <mxGeometry x="940" y="690" width="120" height="60" as="geometry" />
        </mxCell>
        <mxCell id="jHa4SxAEAKlIV_cknHeT-217" style="edgeStyle=orthogonalEdgeStyle;rounded=0;orthogonalLoop=1;jettySize=auto;html=1;exitX=0;exitY=0.75;exitDx=0;exitDy=0;entryX=1;entryY=0.5;entryDx=0;entryDy=0;" edge="1" parent="1" source="jHa4SxAEAKlIV_cknHeT-16" target="jHa4SxAEAKlIV_cknHeT-208">
          <mxGeometry relative="1" as="geometry" />
        </mxCell>
        <mxCell id="jHa4SxAEAKlIV_cknHeT-16" value="Sobrenome" style="rounded=0;whiteSpace=wrap;html=1;fillColor=#dae8fc;strokeColor=#6c8ebf;" vertex="1" parent="1">
          <mxGeometry x="500" y="580" width="110" height="30" as="geometry" />
        </mxCell>
        <mxCell id="jHa4SxAEAKlIV_cknHeT-216" style="edgeStyle=orthogonalEdgeStyle;rounded=0;orthogonalLoop=1;jettySize=auto;html=1;exitX=0;exitY=0.75;exitDx=0;exitDy=0;entryX=1;entryY=0.5;entryDx=0;entryDy=0;" edge="1" parent="1" source="jHa4SxAEAKlIV_cknHeT-18" target="jHa4SxAEAKlIV_cknHeT-210">
          <mxGeometry relative="1" as="geometry" />
        </mxCell>
        <mxCell id="jHa4SxAEAKlIV_cknHeT-18" value="Endereço" style="rounded=0;whiteSpace=wrap;html=1;fillColor=#dae8fc;strokeColor=#6c8ebf;" vertex="1" parent="1">
          <mxGeometry x="500" y="635" width="110" height="30" as="geometry" />
        </mxCell>
        <mxCell id="jHa4SxAEAKlIV_cknHeT-19" value="&lt;div&gt;&lt;br&gt;&lt;/div&gt;Estação de Metrô&lt;div&gt;&lt;br&gt;&lt;/div&gt;" style="rounded=0;whiteSpace=wrap;html=1;fillColor=#dae8fc;strokeColor=#6c8ebf;" vertex="1" parent="1">
          <mxGeometry x="500" y="690" width="110" height="30" as="geometry" />
        </mxCell>
        <mxCell id="jHa4SxAEAKlIV_cknHeT-27" style="edgeStyle=orthogonalEdgeStyle;rounded=0;orthogonalLoop=1;jettySize=auto;html=1;exitX=0.5;exitY=1;exitDx=0;exitDy=0;entryX=0.5;entryY=0;entryDx=0;entryDy=0;" edge="1" parent="1" source="jHa4SxAEAKlIV_cknHeT-20" target="jHa4SxAEAKlIV_cknHeT-10">
          <mxGeometry relative="1" as="geometry" />
        </mxCell>
        <mxCell id="jHa4SxAEAKlIV_cknHeT-20" value="Cabeçalho" style="rounded=0;whiteSpace=wrap;html=1;fillColor=#d0cee2;strokeColor=#56517e;" vertex="1" parent="1">
          <mxGeometry x="750" y="410" width="105" height="40" as="geometry" />
        </mxCell>
        <mxCell id="jHa4SxAEAKlIV_cknHeT-26" style="edgeStyle=orthogonalEdgeStyle;rounded=0;orthogonalLoop=1;jettySize=auto;html=1;exitX=0.5;exitY=1;exitDx=0;exitDy=0;entryX=1;entryY=0.75;entryDx=0;entryDy=0;" edge="1" parent="1" source="jHa4SxAEAKlIV_cknHeT-21" target="jHa4SxAEAKlIV_cknHeT-20">
          <mxGeometry relative="1" as="geometry" />
        </mxCell>
        <mxCell id="jHa4SxAEAKlIV_cknHeT-21" value="Status do pedido" style="rounded=0;whiteSpace=wrap;html=1;fillColor=#fad9d5;strokeColor=#ae4132;" vertex="1" parent="1">
          <mxGeometry x="830" y="320" width="110" height="40" as="geometry" />
        </mxCell>
        <mxCell id="jHa4SxAEAKlIV_cknHeT-25" style="edgeStyle=orthogonalEdgeStyle;rounded=0;orthogonalLoop=1;jettySize=auto;html=1;exitX=0.5;exitY=1;exitDx=0;exitDy=0;entryX=0;entryY=0.75;entryDx=0;entryDy=0;" edge="1" parent="1" source="jHa4SxAEAKlIV_cknHeT-22" target="jHa4SxAEAKlIV_cknHeT-20">
          <mxGeometry relative="1" as="geometry" />
        </mxCell>
        <mxCell id="jHa4SxAEAKlIV_cknHeT-22" value="Fazer pedido" style="rounded=0;whiteSpace=wrap;html=1;fillColor=#fad9d5;strokeColor=#ae4132;" vertex="1" parent="1">
          <mxGeometry x="650" y="320" width="120" height="40" as="geometry" />
        </mxCell>
        <mxCell id="jHa4SxAEAKlIV_cknHeT-214" style="edgeStyle=orthogonalEdgeStyle;rounded=0;orthogonalLoop=1;jettySize=auto;html=1;exitX=0.25;exitY=1;exitDx=0;exitDy=0;entryX=1;entryY=0.5;entryDx=0;entryDy=0;" edge="1" parent="1" source="jHa4SxAEAKlIV_cknHeT-34" target="jHa4SxAEAKlIV_cknHeT-212">
          <mxGeometry relative="1" as="geometry" />
        </mxCell>
        <mxCell id="jHa4SxAEAKlIV_cknHeT-34" value="Telefone" style="rounded=0;whiteSpace=wrap;html=1;fillColor=#dae8fc;strokeColor=#6c8ebf;" vertex="1" parent="1">
          <mxGeometry x="500" y="740" width="110" height="30" as="geometry" />
        </mxCell>
        <mxCell id="jHa4SxAEAKlIV_cknHeT-37" value="Para quem é essa Scooter?" style="whiteSpace=wrap;html=1;fillColor=#bac8d3;strokeColor=#23445d;rounded=0;" vertex="1" parent="1">
          <mxGeometry x="820" y="605" width="120" height="60" as="geometry" />
        </mxCell>
        <mxCell id="jHa4SxAEAKlIV_cknHeT-43" value="Campos" style="rounded=0;whiteSpace=wrap;html=1;fillColor=#fad7ac;strokeColor=#b46504;" vertex="1" parent="1">
          <mxGeometry x="870" y="880" width="120" height="60" as="geometry" />
        </mxCell>
        <mxCell id="jHa4SxAEAKlIV_cknHeT-50" style="edgeStyle=orthogonalEdgeStyle;rounded=0;orthogonalLoop=1;jettySize=auto;html=1;exitX=1;exitY=0.5;exitDx=0;exitDy=0;entryX=0.25;entryY=0;entryDx=0;entryDy=0;" edge="1" parent="1" source="jHa4SxAEAKlIV_cknHeT-48" target="jHa4SxAEAKlIV_cknHeT-43">
          <mxGeometry relative="1" as="geometry" />
        </mxCell>
        <mxCell id="jHa4SxAEAKlIV_cknHeT-48" value="Quando entregar uma scooter?" style="rounded=0;whiteSpace=wrap;html=1;fillColor=#b1ddf0;strokeColor=#10739e;" vertex="1" parent="1">
          <mxGeometry x="680" y="800" width="100" height="40" as="geometry" />
        </mxCell>
        <mxCell id="jHa4SxAEAKlIV_cknHeT-61" style="edgeStyle=orthogonalEdgeStyle;rounded=0;orthogonalLoop=1;jettySize=auto;html=1;exitX=1;exitY=0.25;exitDx=0;exitDy=0;entryX=0;entryY=0.25;entryDx=0;entryDy=0;" edge="1" parent="1" source="jHa4SxAEAKlIV_cknHeT-51" target="jHa4SxAEAKlIV_cknHeT-43">
          <mxGeometry relative="1" as="geometry" />
        </mxCell>
        <mxCell id="jHa4SxAEAKlIV_cknHeT-51" value="Período de locação" style="rounded=0;whiteSpace=wrap;html=1;fillColor=#b1ddf0;strokeColor=#10739e;" vertex="1" parent="1">
          <mxGeometry x="680" y="860" width="100" height="40" as="geometry" />
        </mxCell>
        <mxCell id="jHa4SxAEAKlIV_cknHeT-179" style="edgeStyle=orthogonalEdgeStyle;rounded=0;orthogonalLoop=1;jettySize=auto;html=1;exitX=1;exitY=0.75;exitDx=0;exitDy=0;entryX=0;entryY=0.75;entryDx=0;entryDy=0;" edge="1" parent="1" source="jHa4SxAEAKlIV_cknHeT-52" target="jHa4SxAEAKlIV_cknHeT-43">
          <mxGeometry relative="1" as="geometry" />
        </mxCell>
        <mxCell id="jHa4SxAEAKlIV_cknHeT-52" value="A cor da Scooter" style="rounded=0;whiteSpace=wrap;html=1;fillColor=#b1ddf0;strokeColor=#10739e;" vertex="1" parent="1">
          <mxGeometry x="680" y="920" width="100" height="40" as="geometry" />
        </mxCell>
        <mxCell id="jHa4SxAEAKlIV_cknHeT-53" value="Comentário para o entregador" style="rounded=0;whiteSpace=wrap;html=1;fillColor=#b1ddf0;strokeColor=#10739e;" vertex="1" parent="1">
          <mxGeometry x="680" y="980" width="100" height="40" as="geometry" />
        </mxCell>
        <mxCell id="jHa4SxAEAKlIV_cknHeT-63" style="edgeStyle=orthogonalEdgeStyle;rounded=0;orthogonalLoop=1;jettySize=auto;html=1;exitX=1;exitY=0.5;exitDx=0;exitDy=0;entryX=0.167;entryY=1;entryDx=0;entryDy=0;entryPerimeter=0;" edge="1" parent="1" source="jHa4SxAEAKlIV_cknHeT-53" target="jHa4SxAEAKlIV_cknHeT-43">
          <mxGeometry relative="1" as="geometry" />
        </mxCell>
        <mxCell id="jHa4SxAEAKlIV_cknHeT-73" style="edgeStyle=orthogonalEdgeStyle;rounded=0;orthogonalLoop=1;jettySize=auto;html=1;exitX=0.75;exitY=1;exitDx=0;exitDy=0;entryX=1;entryY=0.5;entryDx=0;entryDy=0;" edge="1" parent="1" source="jHa4SxAEAKlIV_cknHeT-71" target="jHa4SxAEAKlIV_cknHeT-43">
          <mxGeometry relative="1" as="geometry" />
        </mxCell>
        <mxCell id="jHa4SxAEAKlIV_cknHeT-71" value="Locação" style="rounded=0;whiteSpace=wrap;html=1;fillColor=#d0cee2;strokeColor=#56517e;" vertex="1" parent="1">
          <mxGeometry x="940" y="800" width="120" height="60" as="geometry" />
        </mxCell>
        <mxCell id="jHa4SxAEAKlIV_cknHeT-78" value="" style="edgeStyle=orthogonalEdgeStyle;rounded=0;orthogonalLoop=1;jettySize=auto;html=1;" edge="1" parent="1" source="jHa4SxAEAKlIV_cknHeT-75" target="jHa4SxAEAKlIV_cknHeT-77">
          <mxGeometry relative="1" as="geometry" />
        </mxCell>
        <mxCell id="jHa4SxAEAKlIV_cknHeT-75" value="Botão Avançar" style="rounded=0;whiteSpace=wrap;html=1;fillColor=#f5f5f5;gradientColor=#b3b3b3;strokeColor=#666666;" vertex="1" parent="1">
          <mxGeometry x="1100" y="690" width="120" height="60" as="geometry" />
        </mxCell>
        <mxCell id="jHa4SxAEAKlIV_cknHeT-80" value="" style="edgeStyle=orthogonalEdgeStyle;rounded=0;orthogonalLoop=1;jettySize=auto;html=1;" edge="1" parent="1" source="jHa4SxAEAKlIV_cknHeT-77" target="jHa4SxAEAKlIV_cknHeT-79">
          <mxGeometry relative="1" as="geometry" />
        </mxCell>
        <mxCell id="jHa4SxAEAKlIV_cknHeT-83" style="edgeStyle=orthogonalEdgeStyle;rounded=0;orthogonalLoop=1;jettySize=auto;html=1;exitX=0.75;exitY=1;exitDx=0;exitDy=0;entryX=0.5;entryY=0;entryDx=0;entryDy=0;" edge="1" parent="1" source="jHa4SxAEAKlIV_cknHeT-77" target="jHa4SxAEAKlIV_cknHeT-81">
          <mxGeometry relative="1" as="geometry" />
        </mxCell>
        <mxCell id="jHa4SxAEAKlIV_cknHeT-77" value="Fazer Pedido" style="rounded=0;whiteSpace=wrap;html=1;fillColor=#b0e3e6;strokeColor=#0e8088;" vertex="1" parent="1">
          <mxGeometry x="1100" y="800" width="120" height="60" as="geometry" />
        </mxCell>
        <mxCell id="jHa4SxAEAKlIV_cknHeT-79" value="Sim" style="rounded=0;whiteSpace=wrap;html=1;fillColor=#b0e3e6;strokeColor=#0e8088;" vertex="1" parent="1">
          <mxGeometry x="1040" y="910" width="120" height="60" as="geometry" />
        </mxCell>
        <mxCell id="jHa4SxAEAKlIV_cknHeT-81" value="Não" style="rounded=0;whiteSpace=wrap;html=1;fillColor=#b0e3e6;strokeColor=#0e8088;" vertex="1" parent="1">
          <mxGeometry x="1190" y="910" width="120" height="60" as="geometry" />
        </mxCell>
        <mxCell id="jHa4SxAEAKlIV_cknHeT-123" value="" style="edgeStyle=orthogonalEdgeStyle;rounded=0;orthogonalLoop=1;jettySize=auto;html=1;" edge="1" parent="1" source="jHa4SxAEAKlIV_cknHeT-93" target="jHa4SxAEAKlIV_cknHeT-122">
          <mxGeometry relative="1" as="geometry" />
        </mxCell>
        <mxCell id="jHa4SxAEAKlIV_cknHeT-93" value="Nome" style="rounded=0;whiteSpace=wrap;html=1;fillColor=#dae8fc;strokeColor=#6c8ebf;" vertex="1" parent="1">
          <mxGeometry x="1610" y="260" width="110" height="30" as="geometry" />
        </mxCell>
        <mxCell id="jHa4SxAEAKlIV_cknHeT-126" value="" style="edgeStyle=orthogonalEdgeStyle;rounded=0;orthogonalLoop=1;jettySize=auto;html=1;" edge="1" parent="1" source="jHa4SxAEAKlIV_cknHeT-94" target="jHa4SxAEAKlIV_cknHeT-125">
          <mxGeometry relative="1" as="geometry" />
        </mxCell>
        <mxCell id="jHa4SxAEAKlIV_cknHeT-94" value="Sobrenome" style="rounded=0;whiteSpace=wrap;html=1;fillColor=#dae8fc;strokeColor=#6c8ebf;" vertex="1" parent="1">
          <mxGeometry x="1610" y="320" width="110" height="30" as="geometry" />
        </mxCell>
        <mxCell id="jHa4SxAEAKlIV_cknHeT-128" value="" style="edgeStyle=orthogonalEdgeStyle;rounded=0;orthogonalLoop=1;jettySize=auto;html=1;" edge="1" parent="1" source="jHa4SxAEAKlIV_cknHeT-95" target="jHa4SxAEAKlIV_cknHeT-127">
          <mxGeometry relative="1" as="geometry" />
        </mxCell>
        <mxCell id="jHa4SxAEAKlIV_cknHeT-95" value="Endereço" style="rounded=0;whiteSpace=wrap;html=1;fillColor=#dae8fc;strokeColor=#6c8ebf;" vertex="1" parent="1">
          <mxGeometry x="1610" y="380" width="110" height="30" as="geometry" />
        </mxCell>
        <mxCell id="jHa4SxAEAKlIV_cknHeT-133" style="edgeStyle=orthogonalEdgeStyle;rounded=0;orthogonalLoop=1;jettySize=auto;html=1;exitX=1;exitY=0.5;exitDx=0;exitDy=0;entryX=0;entryY=0.5;entryDx=0;entryDy=0;" edge="1" parent="1" source="jHa4SxAEAKlIV_cknHeT-96" target="jHa4SxAEAKlIV_cknHeT-131">
          <mxGeometry relative="1" as="geometry" />
        </mxCell>
        <mxCell id="jHa4SxAEAKlIV_cknHeT-96" value="&lt;div&gt;&lt;br&gt;&lt;/div&gt;Estação de Metrô&lt;div&gt;&lt;br&gt;&lt;/div&gt;" style="rounded=0;whiteSpace=wrap;html=1;fillColor=#dae8fc;strokeColor=#6c8ebf;" vertex="1" parent="1">
          <mxGeometry x="1610" y="445" width="110" height="30" as="geometry" />
        </mxCell>
        <mxCell id="jHa4SxAEAKlIV_cknHeT-138" style="edgeStyle=orthogonalEdgeStyle;rounded=0;orthogonalLoop=1;jettySize=auto;html=1;exitX=1;exitY=1;exitDx=0;exitDy=0;entryX=0;entryY=0.5;entryDx=0;entryDy=0;" edge="1" parent="1" source="jHa4SxAEAKlIV_cknHeT-97" target="jHa4SxAEAKlIV_cknHeT-135">
          <mxGeometry relative="1" as="geometry" />
        </mxCell>
        <mxCell id="jHa4SxAEAKlIV_cknHeT-97" value="Telefone" style="rounded=0;whiteSpace=wrap;html=1;fillColor=#dae8fc;strokeColor=#6c8ebf;" vertex="1" parent="1">
          <mxGeometry x="1610" y="500" width="110" height="30" as="geometry" />
        </mxCell>
        <mxCell id="jHa4SxAEAKlIV_cknHeT-118" value="Para quem é essa Scooter?" style="whiteSpace=wrap;html=1;fillColor=#bac8d3;strokeColor=#23445d;rounded=0;" vertex="1" parent="1">
          <mxGeometry x="820" y="605" width="120" height="60" as="geometry" />
        </mxCell>
        <mxCell id="jHa4SxAEAKlIV_cknHeT-122" value="Apenas letras latinas, espaços e&lt;br/&gt;traços. O comprimento deve ser de 2&lt;br/&gt;a 15 caracteres. Se inserido&lt;br/&gt;incorretamente, será destacado em&lt;br/&gt;vermelho. O texto do erro é &quot;Digite o&lt;br/&gt;nome correto&quot;." style="whiteSpace=wrap;html=1;fillColor=#dae8fc;strokeColor=#6c8ebf;rounded=0;" vertex="1" parent="1">
          <mxGeometry x="1670" y="120" width="290" height="100" as="geometry" />
        </mxCell>
        <mxCell id="jHa4SxAEAKlIV_cknHeT-125" value="Apenas letras latinas, espaços e&lt;br/&gt;traços. O comprimento deve ser de 2&lt;br/&gt;a 15 caracteres. Se inserido&lt;br/&gt;incorretamente, será destacado em&lt;br/&gt;vermelho. O texto do erro é &quot;Digite o&lt;br/&gt;nome correto&quot;." style="whiteSpace=wrap;html=1;fillColor=#dae8fc;strokeColor=#6c8ebf;rounded=0;" vertex="1" parent="1">
          <mxGeometry x="1830" y="240" width="270" height="100" as="geometry" />
        </mxCell>
        <mxCell id="jHa4SxAEAKlIV_cknHeT-127" value="Apenas letras latinas, número,&lt;br/&gt;espaços, traços, barras, pontos e&lt;br/&gt;vírgulas. Deve ter entre 5 e 50&lt;br/&gt;caracteres. Espaços antes e depois&lt;br/&gt;do endereço são excluídos quando o&lt;br/&gt;foco é removido. Se a entrada for&lt;br/&gt;inválida, ela será destacada em&lt;br/&gt;vermelho e o texto de erro &quot;Insira um&lt;br/&gt;endereço válido&quot; será exibido.&amp;nbsp;" style="whiteSpace=wrap;html=1;fillColor=#dae8fc;strokeColor=#6c8ebf;rounded=0;" vertex="1" parent="1">
          <mxGeometry x="1830" y="365" width="270" height="130" as="geometry" />
        </mxCell>
        <mxCell id="jHa4SxAEAKlIV_cknHeT-131" value="Estações de metrô de Los Angeles. A&lt;br/&gt;lista de estações é armazenada no&lt;br/&gt;back-end (na API)" style="whiteSpace=wrap;html=1;fillColor=#dae8fc;strokeColor=#6c8ebf;rounded=0;" vertex="1" parent="1">
          <mxGeometry x="1830" y="505" width="270" height="75" as="geometry" />
        </mxCell>
        <mxCell id="jHa4SxAEAKlIV_cknHeT-135" value="Apenas números e o símbolo &quot;+&quot;.&lt;br/&gt;Deve ter entre 10 e 12 caracteres. Se&lt;br/&gt;inserido incorretamente, será&lt;br/&gt;destacado em vermelho. O texto do&lt;br/&gt;erro é &quot;Digite um número de telefone&lt;br/&gt;válido&quot;." style="whiteSpace=wrap;html=1;fillColor=#dae8fc;strokeColor=#6c8ebf;rounded=0;" vertex="1" parent="1">
          <mxGeometry x="1830" y="595" width="270" height="105" as="geometry" />
        </mxCell>
        <mxCell id="jHa4SxAEAKlIV_cknHeT-141" style="edgeStyle=orthogonalEdgeStyle;rounded=0;orthogonalLoop=1;jettySize=auto;html=1;exitX=0.5;exitY=0;exitDx=0;exitDy=0;entryX=0;entryY=0.75;entryDx=0;entryDy=0;" edge="1" parent="1" source="jHa4SxAEAKlIV_cknHeT-139" target="jHa4SxAEAKlIV_cknHeT-93">
          <mxGeometry relative="1" as="geometry" />
        </mxCell>
        <mxCell id="jHa4SxAEAKlIV_cknHeT-142" style="edgeStyle=orthogonalEdgeStyle;rounded=0;orthogonalLoop=1;jettySize=auto;html=1;exitX=0.75;exitY=0;exitDx=0;exitDy=0;entryX=0;entryY=0.5;entryDx=0;entryDy=0;" edge="1" parent="1" source="jHa4SxAEAKlIV_cknHeT-139" target="jHa4SxAEAKlIV_cknHeT-94">
          <mxGeometry relative="1" as="geometry" />
        </mxCell>
        <mxCell id="jHa4SxAEAKlIV_cknHeT-143" style="edgeStyle=orthogonalEdgeStyle;rounded=0;orthogonalLoop=1;jettySize=auto;html=1;exitX=1;exitY=0.5;exitDx=0;exitDy=0;entryX=0;entryY=0.5;entryDx=0;entryDy=0;" edge="1" parent="1" source="jHa4SxAEAKlIV_cknHeT-139" target="jHa4SxAEAKlIV_cknHeT-95">
          <mxGeometry relative="1" as="geometry" />
        </mxCell>
        <mxCell id="jHa4SxAEAKlIV_cknHeT-144" style="edgeStyle=orthogonalEdgeStyle;rounded=0;orthogonalLoop=1;jettySize=auto;html=1;exitX=1;exitY=0.75;exitDx=0;exitDy=0;entryX=0;entryY=0.75;entryDx=0;entryDy=0;" edge="1" parent="1" source="jHa4SxAEAKlIV_cknHeT-139" target="jHa4SxAEAKlIV_cknHeT-96">
          <mxGeometry relative="1" as="geometry" />
        </mxCell>
        <mxCell id="jHa4SxAEAKlIV_cknHeT-145" style="edgeStyle=orthogonalEdgeStyle;rounded=0;orthogonalLoop=1;jettySize=auto;html=1;exitX=1;exitY=1;exitDx=0;exitDy=0;entryX=0;entryY=0.75;entryDx=0;entryDy=0;" edge="1" parent="1" source="jHa4SxAEAKlIV_cknHeT-139" target="jHa4SxAEAKlIV_cknHeT-97">
          <mxGeometry relative="1" as="geometry" />
        </mxCell>
        <mxCell id="jHa4SxAEAKlIV_cknHeT-139" value="Campos" style="rounded=0;whiteSpace=wrap;html=1;fillColor=#ffe6cc;strokeColor=#d79b00;" vertex="1" parent="1">
          <mxGeometry x="1470" y="375" width="90" height="60" as="geometry" />
        </mxCell>
        <mxCell id="jHa4SxAEAKlIV_cknHeT-148" style="edgeStyle=orthogonalEdgeStyle;rounded=0;orthogonalLoop=1;jettySize=auto;html=1;exitX=1;exitY=0.5;exitDx=0;exitDy=0;entryX=0;entryY=0.75;entryDx=0;entryDy=0;" edge="1" parent="1" source="jHa4SxAEAKlIV_cknHeT-146" target="jHa4SxAEAKlIV_cknHeT-139">
          <mxGeometry relative="1" as="geometry" />
        </mxCell>
        <mxCell id="jHa4SxAEAKlIV_cknHeT-146" value="Para quem é essa Scooter?" style="whiteSpace=wrap;html=1;fillColor=#bac8d3;strokeColor=#23445d;rounded=0;" vertex="1" parent="1">
          <mxGeometry x="1310" y="380" width="120" height="60" as="geometry" />
        </mxCell>
        <mxCell id="jHa4SxAEAKlIV_cknHeT-151" value="" style="edgeStyle=orthogonalEdgeStyle;rounded=0;orthogonalLoop=1;jettySize=auto;html=1;" edge="1" parent="1" source="jHa4SxAEAKlIV_cknHeT-152" target="jHa4SxAEAKlIV_cknHeT-159">
          <mxGeometry relative="1" as="geometry" />
        </mxCell>
        <mxCell id="jHa4SxAEAKlIV_cknHeT-152" value="Botão Avançar" style="rounded=0;whiteSpace=wrap;html=1;fillColor=#f5f5f5;gradientColor=#b3b3b3;strokeColor=#666666;" vertex="1" parent="1">
          <mxGeometry x="1440" y="730" width="120" height="60" as="geometry" />
        </mxCell>
        <mxCell id="jHa4SxAEAKlIV_cknHeT-181" style="edgeStyle=orthogonalEdgeStyle;rounded=0;orthogonalLoop=1;jettySize=auto;html=1;exitX=0;exitY=0.75;exitDx=0;exitDy=0;entryX=0.5;entryY=0;entryDx=0;entryDy=0;" edge="1" parent="1" source="jHa4SxAEAKlIV_cknHeT-153" target="jHa4SxAEAKlIV_cknHeT-176">
          <mxGeometry relative="1" as="geometry" />
        </mxCell>
        <mxCell id="jHa4SxAEAKlIV_cknHeT-182" style="edgeStyle=orthogonalEdgeStyle;rounded=0;orthogonalLoop=1;jettySize=auto;html=1;exitX=0;exitY=1;exitDx=0;exitDy=0;entryX=0.5;entryY=0;entryDx=0;entryDy=0;" edge="1" parent="1" source="jHa4SxAEAKlIV_cknHeT-153" target="jHa4SxAEAKlIV_cknHeT-175">
          <mxGeometry relative="1" as="geometry" />
        </mxCell>
        <mxCell id="jHa4SxAEAKlIV_cknHeT-183" style="edgeStyle=orthogonalEdgeStyle;rounded=0;orthogonalLoop=1;jettySize=auto;html=1;exitX=0.25;exitY=1;exitDx=0;exitDy=0;entryX=0.5;entryY=0;entryDx=0;entryDy=0;" edge="1" parent="1" source="jHa4SxAEAKlIV_cknHeT-153" target="jHa4SxAEAKlIV_cknHeT-174">
          <mxGeometry relative="1" as="geometry" />
        </mxCell>
        <mxCell id="jHa4SxAEAKlIV_cknHeT-184" style="edgeStyle=orthogonalEdgeStyle;rounded=0;orthogonalLoop=1;jettySize=auto;html=1;exitX=0.75;exitY=1;exitDx=0;exitDy=0;entryX=0.5;entryY=0;entryDx=0;entryDy=0;" edge="1" parent="1" source="jHa4SxAEAKlIV_cknHeT-153" target="jHa4SxAEAKlIV_cknHeT-177">
          <mxGeometry relative="1" as="geometry" />
        </mxCell>
        <mxCell id="jHa4SxAEAKlIV_cknHeT-153" value="Campos" style="rounded=0;whiteSpace=wrap;html=1;fillColor=#fad7ac;strokeColor=#b46504;" vertex="1" parent="1">
          <mxGeometry x="1440" y="940" width="120" height="60" as="geometry" />
        </mxCell>
        <mxCell id="jHa4SxAEAKlIV_cknHeT-170" style="edgeStyle=orthogonalEdgeStyle;rounded=0;orthogonalLoop=1;jettySize=auto;html=1;exitX=0.5;exitY=1;exitDx=0;exitDy=0;entryX=0.5;entryY=0;entryDx=0;entryDy=0;" edge="1" parent="1" source="jHa4SxAEAKlIV_cknHeT-159" target="jHa4SxAEAKlIV_cknHeT-153">
          <mxGeometry relative="1" as="geometry" />
        </mxCell>
        <mxCell id="jHa4SxAEAKlIV_cknHeT-159" value="Locação" style="rounded=0;whiteSpace=wrap;html=1;fillColor=#d0cee2;strokeColor=#56517e;" vertex="1" parent="1">
          <mxGeometry x="1440" y="830" width="120" height="60" as="geometry" />
        </mxCell>
        <mxCell id="jHa4SxAEAKlIV_cknHeT-160" value="" style="edgeStyle=orthogonalEdgeStyle;rounded=0;orthogonalLoop=1;jettySize=auto;html=1;" edge="1" parent="1" source="jHa4SxAEAKlIV_cknHeT-161" target="jHa4SxAEAKlIV_cknHeT-164">
          <mxGeometry relative="1" as="geometry" />
        </mxCell>
        <mxCell id="jHa4SxAEAKlIV_cknHeT-161" value="Botão Avançar" style="rounded=0;whiteSpace=wrap;html=1;fillColor=#f5f5f5;gradientColor=#b3b3b3;strokeColor=#666666;" vertex="1" parent="1">
          <mxGeometry x="1820" y="750" width="120" height="60" as="geometry" />
        </mxCell>
        <mxCell id="jHa4SxAEAKlIV_cknHeT-162" value="" style="edgeStyle=orthogonalEdgeStyle;rounded=0;orthogonalLoop=1;jettySize=auto;html=1;" edge="1" parent="1" source="jHa4SxAEAKlIV_cknHeT-164" target="jHa4SxAEAKlIV_cknHeT-165">
          <mxGeometry relative="1" as="geometry" />
        </mxCell>
        <mxCell id="jHa4SxAEAKlIV_cknHeT-163" style="edgeStyle=orthogonalEdgeStyle;rounded=0;orthogonalLoop=1;jettySize=auto;html=1;exitX=0.75;exitY=1;exitDx=0;exitDy=0;entryX=0.5;entryY=0;entryDx=0;entryDy=0;" edge="1" parent="1" source="jHa4SxAEAKlIV_cknHeT-164" target="jHa4SxAEAKlIV_cknHeT-166">
          <mxGeometry relative="1" as="geometry" />
        </mxCell>
        <mxCell id="jHa4SxAEAKlIV_cknHeT-164" value="Fazer Pedido" style="rounded=0;whiteSpace=wrap;html=1;fillColor=#b0e3e6;strokeColor=#0e8088;" vertex="1" parent="1">
          <mxGeometry x="1820" y="860" width="120" height="60" as="geometry" />
        </mxCell>
        <mxCell id="jHa4SxAEAKlIV_cknHeT-165" value="Sim" style="rounded=0;whiteSpace=wrap;html=1;fillColor=#b0e3e6;strokeColor=#0e8088;" vertex="1" parent="1">
          <mxGeometry x="1760" y="970" width="120" height="60" as="geometry" />
        </mxCell>
        <mxCell id="jHa4SxAEAKlIV_cknHeT-166" value="Não" style="rounded=0;whiteSpace=wrap;html=1;fillColor=#b0e3e6;strokeColor=#0e8088;" vertex="1" parent="1">
          <mxGeometry x="1910" y="970" width="120" height="60" as="geometry" />
        </mxCell>
        <mxCell id="jHa4SxAEAKlIV_cknHeT-190" value="" style="edgeStyle=orthogonalEdgeStyle;rounded=0;orthogonalLoop=1;jettySize=auto;html=1;" edge="1" parent="1" source="jHa4SxAEAKlIV_cknHeT-174" target="jHa4SxAEAKlIV_cknHeT-189">
          <mxGeometry relative="1" as="geometry" />
        </mxCell>
        <mxCell id="jHa4SxAEAKlIV_cknHeT-174" value="Quando entregar uma scooter?" style="rounded=0;whiteSpace=wrap;html=1;fillColor=#b1ddf0;strokeColor=#10739e;" vertex="1" parent="1">
          <mxGeometry x="1440" y="1100" width="100" height="40" as="geometry" />
        </mxCell>
        <mxCell id="jHa4SxAEAKlIV_cknHeT-188" value="" style="edgeStyle=orthogonalEdgeStyle;rounded=0;orthogonalLoop=1;jettySize=auto;html=1;" edge="1" parent="1" source="jHa4SxAEAKlIV_cknHeT-175" target="jHa4SxAEAKlIV_cknHeT-187">
          <mxGeometry relative="1" as="geometry" />
        </mxCell>
        <mxCell id="jHa4SxAEAKlIV_cknHeT-175" value="Período de locação" style="rounded=0;whiteSpace=wrap;html=1;fillColor=#b1ddf0;strokeColor=#10739e;" vertex="1" parent="1">
          <mxGeometry x="1300" y="1100" width="100" height="40" as="geometry" />
        </mxCell>
        <mxCell id="jHa4SxAEAKlIV_cknHeT-186" value="" style="edgeStyle=orthogonalEdgeStyle;rounded=0;orthogonalLoop=1;jettySize=auto;html=1;" edge="1" parent="1" source="jHa4SxAEAKlIV_cknHeT-176" target="jHa4SxAEAKlIV_cknHeT-185">
          <mxGeometry relative="1" as="geometry" />
        </mxCell>
        <mxCell id="jHa4SxAEAKlIV_cknHeT-176" value="A cor da Scooter" style="rounded=0;whiteSpace=wrap;html=1;fillColor=#b1ddf0;strokeColor=#10739e;" vertex="1" parent="1">
          <mxGeometry x="1170" y="1100" width="100" height="40" as="geometry" />
        </mxCell>
        <mxCell id="jHa4SxAEAKlIV_cknHeT-192" value="" style="edgeStyle=orthogonalEdgeStyle;rounded=0;orthogonalLoop=1;jettySize=auto;html=1;" edge="1" parent="1" source="jHa4SxAEAKlIV_cknHeT-177" target="jHa4SxAEAKlIV_cknHeT-191">
          <mxGeometry relative="1" as="geometry" />
        </mxCell>
        <mxCell id="jHa4SxAEAKlIV_cknHeT-177" value="Comentário para o entregador" style="rounded=0;whiteSpace=wrap;html=1;fillColor=#b1ddf0;strokeColor=#10739e;" vertex="1" parent="1">
          <mxGeometry x="1570" y="1100" width="100" height="40" as="geometry" />
        </mxCell>
        <mxCell id="jHa4SxAEAKlIV_cknHeT-185" value="Preto, cinza. Uma ou ambas as&lt;br/&gt;opções podem ser escolhidas.&amp;nbsp;" style="whiteSpace=wrap;html=1;fillColor=#b1ddf0;strokeColor=#10739e;rounded=0;" vertex="1" parent="1">
          <mxGeometry x="1090" y="1180" width="190" height="40" as="geometry" />
        </mxCell>
        <mxCell id="jHa4SxAEAKlIV_cknHeT-187" value="É possível escolher de 1 a 7 dias." style="whiteSpace=wrap;html=1;fillColor=#b1ddf0;strokeColor=#10739e;rounded=0;" vertex="1" parent="1">
          <mxGeometry x="1300" y="1210" width="110" height="50" as="geometry" />
        </mxCell>
        <mxCell id="jHa4SxAEAKlIV_cknHeT-189" value="Apenas as datas a partir do dia&lt;br/&gt;seguinte podem ser escolhidas. O&lt;br/&gt;calendário abre com o mês atual.&lt;br/&gt;Não é possível inserir valores&lt;br/&gt;manualmente nesse campo. Quando&lt;br/&gt;o usuário seleciona uma data, o valor&lt;br/&gt;aparece imediatamente no campo. O&lt;br/&gt;usuário pode selecionar uma data&lt;br/&gt;diferente, o campo será destacado&lt;br/&gt;em azul." style="whiteSpace=wrap;html=1;fillColor=#b1ddf0;strokeColor=#10739e;rounded=0;" vertex="1" parent="1">
          <mxGeometry x="1430" y="1210" width="190" height="210" as="geometry" />
        </mxCell>
        <mxCell id="jHa4SxAEAKlIV_cknHeT-191" value="Apenas letras latinas, número,&lt;br/&gt;espaços, traços, barras, pontos e&lt;br/&gt;vírgulas. O comprimento máximo é&lt;br/&gt;24 caracteres.&amp;nbsp;" style="whiteSpace=wrap;html=1;fillColor=#b1ddf0;strokeColor=#10739e;rounded=0;" vertex="1" parent="1">
          <mxGeometry x="1670" y="1210" width="160" height="110" as="geometry" />
        </mxCell>
        <mxCell id="jHa4SxAEAKlIV_cknHeT-199" style="edgeStyle=orthogonalEdgeStyle;rounded=0;orthogonalLoop=1;jettySize=auto;html=1;exitX=1;exitY=0;exitDx=0;exitDy=0;entryX=0.007;entryY=0.607;entryDx=0;entryDy=0;entryPerimeter=0;" edge="1" parent="1" source="jHa4SxAEAKlIV_cknHeT-5" target="jHa4SxAEAKlIV_cknHeT-161">
          <mxGeometry relative="1" as="geometry" />
        </mxCell>
        <mxCell id="jHa4SxAEAKlIV_cknHeT-201" value="&lt;span style=&quot;color: rgb(253, 110, 112); font-family: &amp;quot;Yandex Sans Text&amp;quot;, sans-serif; font-size: 18px; text-align: start;&quot;&gt;Insira um nome válido&lt;/span&gt;" style="whiteSpace=wrap;html=1;rounded=0;" vertex="1" parent="1">
          <mxGeometry x="320" y="475" width="120" height="60" as="geometry" />
        </mxCell>
        <mxCell id="jHa4SxAEAKlIV_cknHeT-208" value="&lt;span style=&quot;color: rgb(253, 110, 112); font-family: &amp;quot;Yandex Sans Text&amp;quot;, sans-serif; font-size: 18px; text-align: start;&quot;&gt;Insira um nome válido&lt;/span&gt;" style="whiteSpace=wrap;html=1;rounded=0;" vertex="1" parent="1">
          <mxGeometry x="320" y="554.5" width="120" height="60" as="geometry" />
        </mxCell>
        <mxCell id="jHa4SxAEAKlIV_cknHeT-210" value="&lt;span style=&quot;color: rgb(253, 110, 112); font-family: &amp;quot;Yandex Sans Text&amp;quot;, sans-serif; font-size: 18px; text-align: start;&quot;&gt;Insira um número válido&lt;/span&gt;" style="whiteSpace=wrap;html=1;rounded=0;" vertex="1" parent="1">
          <mxGeometry x="320" y="630" width="120" height="60" as="geometry" />
        </mxCell>
        <mxCell id="jHa4SxAEAKlIV_cknHeT-212" value="&lt;span style=&quot;color: rgb(253, 110, 112); font-family: &amp;quot;Yandex Sans Text&amp;quot;, sans-serif; font-size: 18px; text-align: start;&quot;&gt;Insira um número válido&lt;/span&gt;" style="whiteSpace=wrap;html=1;rounded=0;" vertex="1" parent="1">
          <mxGeometry x="320" y="730" width="120" height="60" as="geometry" />
        </mxCell>
      </root>
    </mxGraphModel>
  </diagram>
</mxfile>
